<?xml version="1.0" standalone="no"?><!DOCTYPE svg PUBLIC "-//W3C//DTD SVG 1.1//EN" "http://www.w3.org/Graphics/SVG/1.1/DTD/svg11.dtd"><svg t="1657101144345" class="icon" viewBox="0 0 1024 1024" version="1.1" xmlns="http://www.w3.org/2000/svg" p-id="2039" width="48" height="48" xmlns:xlink="http://www.w3.org/1999/xlink"><defs><style type="text/css"></style></defs><path d="M1011.99872 515.82976L852.70528 356.53632a40.96 40.96 0 0 0-57.92768 0l-72.40704 72.40704-43.44832 43.44832-320.48128 320.48128a40.96 40.96 0 0 0-11.97056 30.37184l-1.93536 161.2288a40.88832 40.88832 0 0 0 11.97056 27.55584A40.84736 40.84736 0 0 0 384.06144 1024l161.2288-1.93536a40.96 40.96 0 0 0 30.37184-11.97056l320.49152-320.49152 43.44832-43.44832 72.40704-72.40704a40.93952 40.93952 0 0 0-0.01024-57.91744zM538.51136 960.3584l-133.23264 2.89792 2.89792-133.23264 314.19392-314.19392 130.33472 130.33472-314.19392 314.19392z m357.64224-357.64224L765.81888 472.38144l57.92768-57.92768 130.33472 130.33472-57.92768 57.92768z" fill="#2b3bbb" p-id="2040"></path><path d="M282.65472 962.56H102.4a40.96 40.96 0 0 1-40.96-40.96V102.4a40.96 40.96 0 0 1 40.96-40.96h716.8a40.96 40.96 0 0 1 40.96 40.96v170.74176a30.72 30.72 0 1 0 61.44 0V102.4c0-56.55552-45.84448-102.4-102.4-102.4H102.4C45.84448 0 0 45.84448 0 102.4v819.2c0 56.55552 45.84448 102.4 102.4 102.4h180.25472a30.72 30.72 0 1 0 0-61.44zM890.88 766.55616a30.72 30.72 0 0 0-30.72 30.72V921.6a40.96 40.96 0 0 1-40.96 40.96H698.49088a30.72 30.72 0 1 0 0 61.44H819.2c56.55552 0 102.4-45.84448 102.4-102.4V797.27616a30.72 30.72 0 0 0-30.72-30.72z" fill="#2b3bbb" p-id="2041"></path><path d="M737.28 221.73696a30.72 30.72 0 0 0-30.72-30.72H153.6a30.72 30.72 0 1 0 0 61.44h552.96a30.72 30.72 0 0 0 30.72-30.72zM153.6 389.12a30.72 30.72 0 1 0 0 61.44h348.16a30.72 30.72 0 1 0 0-61.44H153.6zM296.96 587.22304H153.6a30.72 30.72 0 1 0 0 61.44h143.36a30.72 30.72 0 1 0 0-61.44z" fill="#2b3bbb" p-id="2042"></path></svg>